<svg width="114" height="128" viewBox="0 0 114 128" fill="none" xmlns="http://www.w3.org/2000/svg">
<g clip-path="url(#clip0_392_4136)">
<g clip-path="url(#clip1_392_4136)">
<path d="M113.714 0.256348H0.343262V168.402H113.714V0.256348Z" fill="#1D1D1B"/>
<path d="M113.714 0.256348H0.343262V168.402H113.714V0.256348Z" stroke="white" stroke-miterlimit="10"/>
<mask id="mask0_392_4136" style="mask-type:luminance" maskUnits="userSpaceOnUse" x="-61" y="-57" width="402" height="283">
<path d="M340.994 -56.9663H-60.5774V225.625H340.994V-56.9663Z" fill="white"/>
</mask>
<g mask="url(#mask0_392_4136)">
<path d="M63.3632 59.658C62.5762 59.7149 60.9687 59.7529 59.471 59.3162C59.4853 59.1168 59.4901 58.8414 59.4949 58.5329C67.5989 58.4664 74.706 54.0942 77.6585 46.551C78.7699 48.089 81.7082 48.2599 83.4682 46.3231C85.4 44.1916 84.7323 40.0995 81.67 40.0426C80.3678 40.0188 79.5236 40.4698 78.9846 40.973C79.8002 32.8506 75.9509 25.4497 69.545 21.4573C71.5865 20.2753 71.8393 18.3432 70.58 17.0852C70.6897 18.6043 68.6482 19.5869 67.9661 18.9271C69.7072 17.6263 68.839 14.8112 66.8786 14.0517C67.098 16.3256 67.1219 18.8036 62.5046 17.2038C57.1099 15.3334 54.2337 17.4507 53.7424 18.9745C46.5113 20.7832 40.6061 26.5178 38.7841 34.3554C38.412 33.7573 37.7633 33.1401 36.6185 32.7841C33.6994 31.8774 31.7676 35.5517 32.9267 38.1817C33.9569 40.5125 36.6805 41.2911 38.2451 40.3037C38.7697 49.6366 45.8912 56.6815 55.5359 58.2338C55.7457 58.267 55.9556 58.2908 56.1702 58.3192C56.1798 58.6516 56.1703 58.9886 56.1369 59.3019C54.5723 59.7054 50.9949 60.1042 50.9949 60.1042C49.6641 60.1659 43.0436 64.2627 40.4297 66.774C40.4583 67.0588 40.8542 67.5573 41.4266 68.1269C37.9446 71.3171 29.831 66.1711 26.0103 63.6978C25.9102 63.2278 25.7194 62.6249 25.438 62.079L25.4809 61.9081C25.0182 61.0584 24.2502 60.5742 23.5491 60.389L23.239 57.1372C23.2104 56.8429 23.0387 56.596 22.805 56.4583C22.8527 55.7747 23.0292 55.4757 23.2533 55.3048C24.546 55.0105 25.8863 54.3174 25.9197 52.4897C25.9626 50.0829 24.7225 43.3276 23.7065 43.1377C22.6905 42.9478 24.0022 48.9151 23.0626 48.9863C22.1229 49.0575 21.8367 43.3134 20.9161 43.4036C19.9335 43.4985 20.8159 49.1856 19.8763 49.2948C18.9414 49.404 19.0797 43.2944 18.121 43.6789L17.7441 53.2825C18.1305 55.0959 19.6187 55.5137 20.959 55.5421C21.4074 55.7273 21.5744 56.126 21.6507 56.6862C21.5171 56.8619 21.4408 57.0802 21.4646 57.3176L21.8701 61.5663C21.6268 61.4856 21.312 61.4429 20.9209 61.4619C20.0432 61.5094 19.6187 62.2404 20.0146 62.8243C19.9908 62.8386 19.9717 62.8623 19.9669 62.8908C19.9574 62.924 19.9669 62.9525 19.986 62.9762C19.2753 63.4272 19.1274 64.2485 19.5662 64.5855C19.5376 64.6045 19.5138 64.6283 19.5138 64.6662C19.5138 64.7137 19.5424 64.7612 19.5853 64.7754C19.5949 64.7754 19.6044 64.7849 19.6187 64.7849C19.6187 64.7849 19.6378 64.7849 19.6521 64.7849C19.1274 65.3878 19.447 66.2281 19.8667 66.4085C19.862 66.4227 19.8524 66.4322 19.8524 66.4464C19.8524 66.4939 19.881 66.5366 19.924 66.5556C19.9335 66.5556 19.9478 66.5604 19.9574 66.5604C19.9574 66.5604 19.9717 66.5604 19.9812 66.5604C20.339 67.1538 20.9733 67.638 21.913 67.9276C22.1181 67.9893 22.3041 68.032 22.4806 68.0605L23.301 76.6956C23.3487 77.1846 23.7876 77.5454 24.2789 77.4979C24.7702 77.4504 25.1327 77.0137 25.085 76.5247L24.2502 67.7329C24.732 67.4101 25.0564 66.9734 25.4904 66.8262C33.542 71.6873 39.1466 75.167 44.3839 70.586C45.4237 71.3218 46.2871 71.8013 46.4063 71.5829C46.5017 74.1416 47.2029 77.9441 47.16 81.0203C50.2842 81.5567 53.9427 81.8178 57.8492 81.8273C61.9179 81.8178 65.7195 81.5378 68.9201 80.9538C68.7436 77.9014 68.1808 72.2665 68.0329 69.4324C68.715 70.3486 69.3733 70.2394 70.4894 70.9183C70.6707 70.7711 71.0809 70.4341 71.596 69.9973C77.1863 73.9945 82.4475 70.0448 89.9934 64.5191C90.6708 64.6852 91.1477 65.5397 92.2639 65.5872L92.0779 71.3645C92.0588 71.8582 92.4451 72.2712 92.9412 72.2902C93.4373 72.3092 93.8523 71.9247 93.8713 71.431L94.0764 65.103C94.3722 64.9463 94.6202 64.7707 94.8301 64.5808C95.4311 64.3814 95.9653 63.9542 96.0941 63.5412C96.1179 63.5412 96.1323 63.5412 96.137 63.5364C96.1513 63.5364 96.1609 63.5364 96.1704 63.5269C96.2133 63.5079 96.2372 63.4605 96.2324 63.413C96.2324 63.3987 96.2181 63.3892 96.2133 63.3797C96.614 63.1614 96.8477 62.2926 96.2706 61.742C96.2897 61.742 96.2992 61.742 96.304 61.7372C96.3135 61.7372 96.3278 61.7325 96.3374 61.7277C96.3803 61.7087 96.4041 61.6613 96.3994 61.6138C96.3946 61.5758 96.3708 61.5521 96.3421 61.5378C96.7476 61.1581 96.5186 60.3605 95.765 59.976C95.7793 59.9475 95.7888 59.919 95.7745 59.8858C95.765 59.8573 95.7459 59.8383 95.722 59.8241C96.0607 59.2022 95.5646 58.5139 94.687 58.5566C94.5439 58.5614 94.4151 58.5803 94.2911 58.5993L94.5153 51.6922C94.5248 51.4168 94.4103 51.1747 94.2195 51.0038C94.2625 50.363 94.4008 49.9025 94.8778 49.6841C96.2133 49.6034 97.3056 49.0242 98.0068 47.3058C99.061 44.7233 99.2041 37.8304 94.4676 37.555C89.5546 37.2655 88.8344 44.0729 89.8074 46.8263C90.4179 48.5495 91.2765 49.2996 92.5739 49.5417C92.8315 49.7268 93.0414 50.0591 93.0891 50.9469C92.8792 51.1035 92.7361 51.3456 92.7266 51.6257L92.5358 57.4125C91.8203 57.4742 90.9856 57.8208 90.3846 58.5661V58.5946C90.0745 58.8557 89.7931 59.1832 89.5832 59.5962L89.6357 59.7719C89.3972 60.351 89.2589 60.9777 89.2016 61.4619C85.6719 64.2153 78.2357 69.9214 74.4246 67.3769C75.1019 66.6553 75.598 66.0097 75.6027 65.6394C72.1207 62.9145 65.9628 60.1089 63.8784 59.658H63.3871H63.3632Z" fill="white"/>
</g>
<mask id="mask1_392_4136" style="mask-type:luminance" maskUnits="userSpaceOnUse" x="-61" y="-57" width="402" height="283">
<path d="M340.994 -56.9663H-60.5774V225.625H340.994V-56.9663Z" fill="white"/>
</mask>
<g mask="url(#mask1_392_4136)">
<path d="M27.1405 105.848C25.6428 110.491 24.9273 112.224 23.5297 112.224C23.2913 112.224 23.1529 112.019 23.1529 111.678C23.1863 109.646 24.6507 108.222 27.7511 103.607C27.8656 103.449 27.9451 103.326 27.9896 103.237L27.1358 105.848H27.1405ZM54.491 93.0022C54.491 90.0542 52.9933 88.5256 50.0979 88.5256C47.713 88.5256 45.5332 90.2868 43.692 92.5275C43.692 90.1539 42.3994 88.1885 40.1862 88.1885C37.3576 88.1885 35.3161 90.4957 32.5544 93.9849L34.4623 88.1553C34.5625 87.8183 34.4289 87.2059 33.7802 87.2059C33.6419 87.2059 33.5083 87.2391 33.37 87.3435C32.893 87.6806 32.2777 88.0888 31.6672 88.5303C28.8052 90.6001 25.2278 93.1399 22.094 93.1399C19.8474 93.1399 18.4164 91.8866 18.4164 89.3421C18.4164 88.9338 18.1446 88.5636 17.701 88.5636C17.3623 88.5636 17.0189 88.8342 16.9855 89.176C16.6468 92.4658 18.9268 94.564 22.094 94.564C26.0816 94.564 29.5875 91.8154 32.416 89.7836L29.7592 97.8538C29.6924 97.9915 26.7637 102.53 26.5586 102.805C23.5584 106.703 21.7554 109.651 21.722 111.549C21.722 112.736 22.2657 113.686 23.5297 113.686C25.7764 113.686 26.6969 111.853 28.5047 106.294L31.0614 98.4994C33.6514 94.7681 37.2956 89.6174 40.1194 89.6174C41.6505 89.6174 42.2658 91.0084 42.2658 92.7363C42.2658 93.5481 42.0941 94.5355 41.7554 95.6843C40.1861 100.939 38.178 107.006 36.2367 112.432C36.0984 112.874 36.375 113.382 36.9188 113.382C37.2241 113.382 37.4959 113.211 37.6009 112.907C40.7013 104.058 41.1115 102.772 43.3581 95.3141C44.9942 92.7743 47.6176 89.8548 50.1027 89.8548C52.1108 89.8548 53.1697 90.771 53.1697 93.0069C53.1697 95.2429 52.149 97.8538 50.7514 101.685C49.2871 105.72 46.0865 114.227 46.0865 116.667C46.0865 118.803 47.4841 120.36 49.8308 120.36C50.2077 120.36 50.5129 120.056 50.5129 119.681C50.5129 119.306 50.2077 119.036 49.8308 119.036C48.5 119.036 47.4459 118.186 47.4459 116.662C47.4459 114.559 50.5463 106.119 52.0107 102.155C53.4416 98.2241 54.5673 95.4422 54.4958 93.0022" fill="white"/>
</g>
<mask id="mask2_392_4136" style="mask-type:luminance" maskUnits="userSpaceOnUse" x="-61" y="-57" width="402" height="283">
<path d="M340.994 -56.9663H-60.5774V225.625H340.994V-56.9663Z" fill="white"/>
</mask>
<g mask="url(#mask2_392_4136)">
<path d="M27.1405 105.848C25.6428 110.491 24.9273 112.224 23.5297 112.224C23.2913 112.224 23.1529 112.019 23.1529 111.678C23.1863 109.646 24.6507 108.222 27.7511 103.607C27.8656 103.449 27.9451 103.326 27.9896 103.237L27.1358 105.848H27.1405ZM54.491 93.0022C54.491 90.0542 52.9933 88.5256 50.0979 88.5256C47.713 88.5256 45.5332 90.2868 43.692 92.5275C43.692 90.1539 42.3994 88.1885 40.1862 88.1885C37.3576 88.1885 35.3161 90.4957 32.5544 93.9849L34.4623 88.1553C34.5625 87.8183 34.4289 87.2059 33.7802 87.2059C33.6419 87.2059 33.5083 87.2391 33.37 87.3435C32.893 87.6806 32.2777 88.0888 31.6672 88.5303C28.8052 90.6001 25.2278 93.1399 22.094 93.1399C19.8474 93.1399 18.4164 91.8866 18.4164 89.3421C18.4164 88.9338 18.1446 88.5636 17.701 88.5636C17.3623 88.5636 17.0189 88.8342 16.9855 89.176C16.6468 92.4658 18.9268 94.564 22.094 94.564C26.0816 94.564 29.5875 91.8154 32.416 89.7836L29.7592 97.8538C29.6924 97.9915 26.7637 102.53 26.5586 102.805C23.5584 106.703 21.7554 109.651 21.722 111.549C21.722 112.736 22.2657 113.686 23.5297 113.686C25.7764 113.686 26.6969 111.853 28.5047 106.294L31.0614 98.4994C33.6514 94.7681 37.2956 89.6174 40.1194 89.6174C41.6505 89.6174 42.2658 91.0084 42.2658 92.7363C42.2658 93.5481 42.0941 94.5355 41.7554 95.6843C40.1861 100.939 38.178 107.006 36.2367 112.432C36.0984 112.874 36.375 113.382 36.9188 113.382C37.2241 113.382 37.4959 113.211 37.6009 112.907C40.7013 104.058 41.1115 102.772 43.3581 95.3141C44.9942 92.7743 47.6176 89.8548 50.1027 89.8548C52.1108 89.8548 53.1697 90.771 53.1697 93.0069C53.1697 95.2429 52.149 97.8538 50.7514 101.685C49.2871 105.72 46.0865 114.227 46.0865 116.667C46.0865 118.803 47.4841 120.36 49.8308 120.36C50.2077 120.36 50.5129 120.056 50.5129 119.681C50.5129 119.306 50.2077 119.036 49.8308 119.036C48.5 119.036 47.4459 118.186 47.4459 116.662C47.4459 114.559 50.5463 106.119 52.0107 102.155C53.4416 98.2241 54.5673 95.4422 54.4958 93.0022H54.491Z" stroke="white" stroke-width="0.5" stroke-miterlimit="10"/>
</g>
<mask id="mask3_392_4136" style="mask-type:luminance" maskUnits="userSpaceOnUse" x="-61" y="-57" width="402" height="283">
<path d="M340.994 -56.9663H-60.5774V225.625H340.994V-56.9663Z" fill="white"/>
</mask>
<g mask="url(#mask3_392_4136)">
<path d="M58.6788 95.8173C59.3275 95.8173 59.8379 95.3093 59.8379 94.6637C59.8379 94.0181 59.3275 93.5101 58.6788 93.5101C58.0301 93.5101 57.4863 94.0181 57.4863 94.6637C57.4863 95.3093 58.0301 95.8173 58.6788 95.8173Z" fill="white"/>
</g>
<mask id="mask4_392_4136" style="mask-type:luminance" maskUnits="userSpaceOnUse" x="-61" y="-57" width="402" height="283">
<path d="M340.994 -56.9663H-60.5774V225.625H340.994V-56.9663Z" fill="white"/>
</mask>
<g mask="url(#mask4_392_4136)">
<path d="M58.6788 95.8173C59.3275 95.8173 59.8379 95.3093 59.8379 94.6637C59.8379 94.0181 59.3275 93.5101 58.6788 93.5101C58.0301 93.5101 57.4863 94.0181 57.4863 94.6637C57.4863 95.3093 58.0301 95.8173 58.6788 95.8173Z" stroke="white" stroke-width="0.5" stroke-miterlimit="10"/>
</g>
<mask id="mask5_392_4136" style="mask-type:luminance" maskUnits="userSpaceOnUse" x="-61" y="-57" width="402" height="283">
<path d="M340.994 -56.9663H-60.5774V225.625H340.994V-56.9663Z" fill="white"/>
</mask>
<g mask="url(#mask5_392_4136)">
<path d="M94.3768 98.2573C94.3768 97.7826 94.4769 97.1702 94.8872 96.7667C95.2258 96.4296 95.6026 96.3252 95.6026 96.7999C95.6026 97.5452 95.0923 98.5991 94.5485 99.3444C94.4483 98.9694 94.3768 98.6323 94.3768 98.2621M95.159 100.84C96.2132 99.653 97.067 98.1624 97.067 96.8047C97.0002 95.822 96.4183 95.0435 95.4309 95.0435C94.0334 95.0435 92.9458 96.5341 92.9458 98.3C92.9458 99.0786 93.1509 99.8239 93.4562 100.536C93.046 100.944 92.7073 101.315 92.2971 101.789C92.1969 101.927 92.1254 102.093 92.1254 102.231C92.1254 102.435 92.1922 102.672 92.3639 102.805C92.5022 102.943 92.7025 102.976 92.8743 102.976C93.0794 102.976 93.2845 102.876 93.418 102.705C93.6231 102.435 93.8616 102.164 94.1001 101.927C95.9079 105.079 96.4183 106.062 96.4517 107.552C96.3849 110.367 94.4102 112.162 91.6484 112.162C89.6737 112.162 87.9374 110.704 87.9374 108.635C88.0758 106.565 89.3016 105.008 91.1714 105.008C92.0586 105.008 92.9077 105.853 92.9792 107.006C92.9792 107.415 93.2845 107.718 93.6947 107.718C94.1049 107.718 94.4102 107.415 94.4102 107.006C94.3434 105.141 92.9124 103.584 91.138 103.584C89.0441 103.584 87.5559 104.77 86.8833 106.703C85.1375 110.467 83.8783 112.157 82.3519 112.157C81.6364 112.157 81.3312 111.716 81.3312 110.733C81.3312 109.817 82.1134 107.073 83.4108 103.579C83.9212 102.221 84.5699 100.394 85.3188 98.4235C85.4905 97.982 85.1471 97.474 84.6033 97.474C84.3314 97.474 84.0595 97.6449 83.9546 97.9155C82.185 102.729 80.921 106.323 79.7285 108.696C78.6028 111.004 77.21 112.152 75.8124 112.152C74.5866 112.152 73.9379 111.44 73.9379 110.049C73.9379 109.266 74.0619 108.696 74.8632 106.517C74.8728 106.498 74.8823 106.475 74.8918 106.456C74.9014 106.422 74.9109 106.389 74.9205 106.356C75.5119 104.756 76.4468 102.326 77.9207 98.4187C78.0924 97.9772 77.8205 97.4693 77.2386 97.4693C76.9667 97.4693 76.6949 97.6402 76.5899 97.9108C75.1017 101.756 74.1239 104.258 73.4943 106.009C71.4575 110.382 70.2364 112.148 68.6528 112.148C67.9374 112.148 67.6321 111.706 67.6321 110.723C67.6321 108.112 70.2889 103.674 70.2889 100.655C70.2889 98.8602 69.54 97.4693 67.0883 97.4693C65.9626 97.4693 64.9085 98.1149 63.9211 99.1308L64.193 98.452C64.3647 98.0105 64.0213 97.5025 63.5109 97.5025C63.2056 97.5025 62.9338 97.6734 62.8288 97.9772C62.0847 100.009 61.0831 102.834 60.0337 105.777C60.0098 105.81 59.986 105.839 59.9669 105.872C58.7077 108.649 57.1384 112.143 55.0301 112.143C54.3146 112.143 54.0093 111.701 54.0093 110.719C54.0093 109.261 54.6246 107.704 57.9254 98.4472C58.1305 97.8728 57.6869 97.531 57.2433 97.531C56.9714 97.531 56.6995 97.7019 56.5946 98.0057C55.0969 101.87 52.6785 108.075 52.5736 110.719C52.5068 112.281 53.3892 113.567 55.0253 113.567C56.0127 113.567 56.8713 113.145 57.6392 112.456C57.6201 112.508 57.601 112.565 57.582 112.618C57.4436 113.026 57.6487 113.396 58.0256 113.534C58.4024 113.633 58.8078 113.467 58.9462 113.059L61.2882 106.47C61.2882 106.47 61.2929 106.456 61.2977 106.446C61.3025 106.432 61.3072 106.413 61.312 106.399L61.3311 106.347C62.4186 103.465 65.0087 98.8887 67.0883 98.8887C68.4191 98.8887 68.8579 99.6672 68.8579 100.65C68.8579 103.598 66.2011 107.533 66.2011 110.719C66.2011 112.38 67.0168 113.567 68.6528 113.567C70.122 113.567 71.3001 112.76 72.5594 110.871C72.8074 112.637 73.8997 113.567 75.7743 113.567H75.8077C77.3388 113.567 78.9081 112.551 79.8954 111.16C80.1005 112.651 80.8494 113.567 82.3472 113.567C83.9737 113.567 85.3045 112.513 86.7354 110.087C87.3889 112.11 89.3493 113.567 91.6484 113.567C95.0875 113.567 97.8111 111.227 97.8826 107.567C97.8492 105.259 96.9287 104.073 95.159 100.821" fill="white"/>
</g>
<mask id="mask6_392_4136" style="mask-type:luminance" maskUnits="userSpaceOnUse" x="-61" y="-57" width="402" height="283">
<path d="M340.994 -56.9663H-60.5774V225.625H340.994V-56.9663Z" fill="white"/>
</mask>
<g mask="url(#mask6_392_4136)">
<path d="M94.3768 98.2573C94.3768 97.7826 94.4769 97.1702 94.8872 96.7667C95.2258 96.4296 95.6026 96.3252 95.6026 96.7999C95.6026 97.5452 95.0923 98.5991 94.5485 99.3444C94.4483 98.9694 94.3768 98.6323 94.3768 98.262V98.2573ZM95.159 100.835C96.2132 99.6482 97.067 98.1576 97.067 96.7999C97.0002 95.8172 96.4183 95.0387 95.4309 95.0387C94.0334 95.0387 92.9458 96.5293 92.9458 98.2953C92.9458 99.0738 93.1509 99.8191 93.4562 100.531C93.046 100.939 92.7073 101.31 92.2971 101.784C92.1969 101.922 92.1254 102.088 92.1254 102.226C92.1254 102.43 92.1922 102.667 92.3639 102.8C92.5022 102.938 92.7025 102.971 92.8743 102.971C93.0794 102.971 93.2845 102.872 93.418 102.701C93.6231 102.43 93.8616 102.159 94.1001 101.922C95.9079 105.074 96.4183 106.057 96.4517 107.548C96.3849 110.363 94.4102 112.157 91.6484 112.157C89.6737 112.157 87.9374 110.7 87.9374 108.63C88.0758 106.56 89.3016 105.003 91.1714 105.003C92.0586 105.003 92.9077 105.848 92.9792 107.002C92.9792 107.41 93.2845 107.714 93.6947 107.714C94.1049 107.714 94.4102 107.41 94.4102 107.002C94.3434 105.136 92.9124 103.579 91.138 103.579C89.0441 103.579 87.5559 104.766 86.8833 106.698C85.1375 110.462 83.8783 112.152 82.3519 112.152C81.6364 112.152 81.3312 111.711 81.3312 110.728C81.3312 109.812 82.1134 107.068 83.4108 103.574C83.9212 102.216 84.5699 100.389 85.3188 98.4187C85.4905 97.9772 85.1471 97.4693 84.6033 97.4693C84.3314 97.4693 84.0595 97.6402 83.9546 97.9107C82.185 102.724 80.921 106.318 79.7285 108.692C78.6028 110.999 77.21 112.148 75.8124 112.148C74.5866 112.148 73.9379 111.435 73.9379 110.045C73.9379 109.261 74.0619 108.692 74.8632 106.513C74.8728 106.494 74.8823 106.47 74.8918 106.451C74.9014 106.418 74.9109 106.384 74.9205 106.351C75.5119 104.751 76.4468 102.321 77.9207 98.4139C78.0924 97.9725 77.8205 97.4645 77.2386 97.4645C76.9667 97.4645 76.6949 97.6354 76.5899 97.906C75.1017 101.751 74.1239 104.253 73.4943 106.005C71.4575 110.377 70.2364 112.143 68.6528 112.143C67.9374 112.143 67.6321 111.701 67.6321 110.719C67.6321 108.108 70.2889 103.669 70.2889 100.65C70.2889 98.8554 69.54 97.4645 67.0883 97.4645C65.9626 97.4645 64.9085 98.1101 63.9211 99.126L64.193 98.4472C64.3647 98.0057 64.0213 97.4977 63.5109 97.4977C63.2056 97.4977 62.9338 97.6686 62.8288 97.9725C62.0847 100.004 61.0831 102.829 60.0337 105.772C60.0098 105.805 59.986 105.834 59.9669 105.867C58.7077 108.644 57.1384 112.138 55.0301 112.138C54.3146 112.138 54.0093 111.697 54.0093 110.714C54.0093 109.257 54.6246 107.699 57.9254 98.4424C58.1305 97.868 57.6869 97.5262 57.2433 97.5262C56.9714 97.5262 56.6995 97.6971 56.5946 98.0009C55.0969 101.865 52.6785 108.07 52.5736 110.714C52.5068 112.276 53.3892 113.562 55.0253 113.562C56.0127 113.562 56.8713 113.14 57.6392 112.451C57.6201 112.504 57.601 112.561 57.582 112.613C57.4436 113.021 57.6487 113.391 58.0256 113.529C58.4024 113.629 58.8078 113.463 58.9462 113.054L61.2882 106.465C61.2882 106.465 61.2929 106.451 61.2977 106.441C61.3025 106.427 61.3072 106.408 61.312 106.394L61.3311 106.342C62.4186 103.46 65.0087 98.8839 67.0883 98.8839C68.4191 98.8839 68.8579 99.6625 68.8579 100.645C68.8579 103.593 66.2011 107.529 66.2011 110.714C66.2011 112.375 67.0168 113.562 68.6528 113.562C70.122 113.562 71.3001 112.755 72.5594 110.866C72.8074 112.632 73.8997 113.562 75.7743 113.562H75.8077C77.3388 113.562 78.9081 112.546 79.8954 111.155C80.1005 112.646 80.8494 113.562 82.3472 113.562C83.9737 113.562 85.3045 112.508 86.7354 110.083C87.3889 112.105 89.3493 113.562 91.6484 113.562C95.0875 113.562 97.8111 111.222 97.8826 107.562C97.8492 105.255 96.9287 104.068 95.159 100.816V100.835Z" stroke="white" stroke-width="0.5" stroke-miterlimit="10"/>
</g>
</g>
</g>
<defs>
<clipPath id="clip0_392_4136">
<rect width="114" height="128" rx="10" fill="white"/>
</clipPath>
<clipPath id="clip1_392_4136">
<rect width="114" height="169" fill="white"/>
</clipPath>
</defs>
</svg>
