<svg width="219" height="120" viewBox="0 0 219 120" fill="none" xmlns="http://www.w3.org/2000/svg">
<rect x="0.5" width="218" height="120" rx="10" fill="black"/>
<mask id="mask0_357_5650" style="mask-type:luminance" maskUnits="userSpaceOnUse" x="-119" y="-108" width="456" height="326">
<path d="M336.501 -107.865H-118.832V217.753H336.501V-107.865Z" fill="white"/>
</mask>
<g mask="url(#mask0_357_5650)">
<path d="M47.472 63.9248C44.4162 73.552 42.956 77.1349 40.1057 77.1349C39.6189 77.1349 39.3431 76.7137 39.3431 76.008C39.4134 71.7907 42.3989 68.8423 48.7214 59.2863C48.9521 58.9581 49.1144 58.701 49.2082 58.515L47.472 63.9248ZM103.26 37.2969C103.26 31.1814 100.205 28.0198 94.2985 28.0198C89.4363 28.0198 84.9906 31.6737 81.2371 36.3123C81.2371 31.3947 78.5978 27.3196 74.0817 27.3196C68.3163 27.3196 64.1463 32.1004 58.5215 39.3317L62.4102 27.2485C62.6211 26.5429 62.3399 25.2793 61.0202 25.2793C60.7444 25.2793 60.4632 25.3504 60.1873 25.5637C59.2138 26.2639 57.9644 27.1063 56.7151 28.0198C50.8794 32.3082 43.5833 37.5759 37.1905 37.5759C32.6042 37.5759 29.689 34.9776 29.689 29.7045C29.689 28.8621 29.1319 28.0909 28.2287 28.0909C27.5364 28.0909 26.8387 28.6543 26.7684 29.3544C26.0707 36.1701 30.7274 40.5297 37.1905 40.5297C45.3195 40.5297 52.4749 34.8354 58.2403 30.6235L52.821 47.3453C52.6804 47.6297 46.7094 57.0436 46.2876 57.6015C40.176 65.6807 36.4928 71.7962 36.4225 75.7291C36.4225 78.1906 37.5313 80.1543 40.1057 80.1543C44.6921 80.1543 46.5688 76.3581 50.2466 64.8383L55.4549 48.6745C60.7336 40.9454 68.1702 30.2625 73.9357 30.2625C77.0618 30.2625 78.3111 33.1451 78.3111 36.728C78.3111 38.4128 77.965 40.4531 77.2673 42.8434C74.0709 53.7342 69.9712 66.3097 66.0122 77.5561C65.7364 78.4696 66.2881 79.5252 67.4022 79.5252C68.0296 79.5252 68.5813 79.1697 68.7922 78.5407C75.1147 60.2052 75.9476 57.5304 80.534 42.0722C83.871 36.8046 89.22 30.7602 94.2877 30.7602C98.3873 30.7602 100.54 32.6583 100.54 37.2969C100.54 41.9354 98.4576 47.3453 95.6074 55.2877C92.6219 63.6513 86.0885 81.2866 86.0885 86.3409C86.0885 90.7661 88.9387 93.9989 93.7306 93.9989C94.4932 93.9989 95.1206 93.3643 95.1206 92.5931C95.1206 91.8218 94.4932 91.2584 93.7306 91.2584C91.021 91.2584 88.8684 89.5025 88.8684 86.3409C88.8684 81.9868 95.1909 64.4882 98.1764 56.2668C101.092 48.1165 103.385 42.3566 103.25 37.2969" fill="white"/>
</g>
<mask id="mask1_357_5650" style="mask-type:luminance" maskUnits="userSpaceOnUse" x="-119" y="-108" width="456" height="326">
<path d="M336.501 -107.865H-118.832V217.753H336.501V-107.865Z" fill="white"/>
</mask>
<g mask="url(#mask1_357_5650)">
<path d="M47.472 63.9248C44.4162 73.552 42.956 77.1349 40.1057 77.1349C39.6189 77.1349 39.3431 76.7137 39.3431 76.008C39.4134 71.7907 42.3989 68.8423 48.7214 59.2863C48.9521 58.9581 49.1144 58.701 49.2082 58.515L47.472 63.9248ZM103.26 37.2969C103.26 31.1814 100.205 28.0198 94.2985 28.0198C89.4363 28.0198 84.9906 31.6737 81.2371 36.3123C81.2371 31.3947 78.5978 27.3196 74.0817 27.3196C68.3163 27.3196 64.1463 32.1004 58.5215 39.3317L62.4102 27.2485C62.6211 26.5429 62.3399 25.2793 61.0202 25.2793C60.7444 25.2793 60.4632 25.3504 60.1873 25.5637C59.2138 26.2639 57.9644 27.1063 56.7151 28.0198C50.8794 32.3082 43.5833 37.5759 37.1905 37.5759C32.6042 37.5759 29.689 34.9776 29.689 29.7045C29.689 28.8621 29.1319 28.0909 28.2287 28.0909C27.5364 28.0909 26.8387 28.6543 26.7684 29.3544C26.0707 36.1701 30.7274 40.5297 37.1905 40.5297C45.3195 40.5297 52.4749 34.8354 58.2403 30.6235L52.821 47.3453C52.6804 47.6297 46.7094 57.0436 46.2876 57.6015C40.176 65.6807 36.4928 71.7962 36.4225 75.7291C36.4225 78.1906 37.5313 80.1543 40.1057 80.1543C44.6921 80.1543 46.5688 76.3581 50.2466 64.8383L55.4549 48.6745C60.7336 40.9454 68.1702 30.2625 73.9357 30.2625C77.0618 30.2625 78.3111 33.1451 78.3111 36.728C78.3111 38.4128 77.965 40.4531 77.2673 42.8434C74.0709 53.7342 69.9712 66.3097 66.0122 77.5561C65.7364 78.4696 66.2881 79.5252 67.4022 79.5252C68.0296 79.5252 68.5813 79.1697 68.7922 78.5407C75.1147 60.2052 75.9476 57.5304 80.534 42.0722C83.871 36.8046 89.22 30.7602 94.2877 30.7602C98.3873 30.7602 100.54 32.6583 100.54 37.2969C100.54 41.9354 98.4576 47.3453 95.6074 55.2877C92.6219 63.6513 86.0885 81.2866 86.0885 86.3409C86.0885 90.7661 88.9387 93.9989 93.7306 93.9989C94.4932 93.9989 95.1206 93.3643 95.1206 92.5931C95.1206 91.8218 94.4932 91.2584 93.7306 91.2584C91.021 91.2584 88.8684 89.5025 88.8684 86.3409C88.8684 81.9868 95.1909 64.4882 98.1764 56.2668C101.092 48.1165 103.385 42.3566 103.25 37.2969H103.26Z" stroke="white" stroke-miterlimit="10"/>
</g>
<mask id="mask2_357_5650" style="mask-type:luminance" maskUnits="userSpaceOnUse" x="-119" y="-108" width="456" height="326">
<path d="M336.501 -107.865H-118.832V217.753H336.501V-107.865Z" fill="white"/>
</mask>
<g mask="url(#mask2_357_5650)">
<path d="M111.809 43.1284C113.128 43.1284 114.172 42.0727 114.172 40.7381C114.172 39.4034 113.128 38.3477 111.809 38.3477C110.489 38.3477 109.375 39.4034 109.375 40.7381C109.375 42.0727 110.489 43.1284 111.809 43.1284Z" fill="white"/>
</g>
<mask id="mask3_357_5650" style="mask-type:luminance" maskUnits="userSpaceOnUse" x="-119" y="-108" width="456" height="326">
<path d="M336.501 -107.865H-118.832V217.753H336.501V-107.865Z" fill="white"/>
</mask>
<g mask="url(#mask3_357_5650)">
<path d="M111.809 43.1284C113.128 43.1284 114.172 42.0727 114.172 40.7381C114.172 39.4034 113.128 38.3477 111.809 38.3477C110.489 38.3477 109.375 39.4034 109.375 40.7381C109.375 42.0727 110.489 43.1284 111.809 43.1284Z" stroke="white" stroke-miterlimit="10"/>
</g>
<mask id="mask4_357_5650" style="mask-type:luminance" maskUnits="userSpaceOnUse" x="-119" y="-108" width="456" height="326">
<path d="M336.501 -107.865H-118.832V217.753H336.501V-107.865Z" fill="white"/>
</mask>
<g mask="url(#mask4_357_5650)">
<path d="M184.615 48.189C184.615 47.2044 184.826 45.9409 185.658 45.0985C186.351 44.3983 187.119 44.185 187.119 45.1696C187.119 46.7176 186.075 48.8947 184.966 50.4427C184.755 49.6714 184.62 48.9658 184.62 48.1945M186.221 53.5332C188.374 51.0772 190.11 47.9812 190.11 45.1696C189.969 43.1347 188.79 41.5156 186.773 41.5156C183.922 41.5156 181.699 44.6062 181.699 48.2601C181.699 49.8738 182.116 51.4218 182.743 52.8987C181.91 53.7411 181.213 54.5178 180.38 55.4969C180.169 55.7814 180.034 56.1315 180.034 56.4104C180.034 56.8316 180.174 57.3239 180.52 57.6029C180.796 57.8873 181.213 57.953 181.564 57.953C181.981 57.953 182.397 57.7451 182.678 57.3896C183.095 56.8261 183.582 56.2682 184.068 55.7759C187.752 62.3126 188.79 64.3474 188.86 67.438C188.72 73.269 184.69 76.994 179.066 76.994C175.036 76.994 171.494 73.9746 171.494 69.6861C171.77 65.4031 174.274 62.1703 178.092 62.1703C179.898 62.1703 181.635 63.9262 181.775 66.3166C181.775 67.159 182.403 67.7935 183.235 67.7935C184.068 67.7935 184.696 67.159 184.696 66.3166C184.555 62.4493 181.64 59.222 178.027 59.222C173.754 59.222 170.715 61.678 169.352 65.693C165.793 73.4987 163.224 76.9995 160.103 76.9995C158.643 76.9995 158.021 76.086 158.021 74.0457C158.021 72.1476 159.617 66.4588 162.261 59.222C163.305 56.4104 164.625 52.6142 166.15 48.5391C166.496 47.6256 165.804 46.5699 164.69 46.5699C164.133 46.5699 163.581 46.92 163.37 47.4834C159.757 57.4607 157.188 64.9108 154.755 69.8283C152.461 74.6091 149.616 76.994 146.766 76.994C144.267 76.994 142.942 75.5171 142.942 72.6399C142.942 71.0208 143.202 69.8338 144.83 65.321C144.852 65.2773 144.868 65.2335 144.889 65.1898C144.911 65.1241 144.933 65.053 144.949 64.9874C146.155 61.6726 148.059 56.6402 151.071 48.5391C151.417 47.6256 150.86 46.5699 149.681 46.5699C149.124 46.5699 148.567 46.92 148.362 47.4834C145.322 55.4532 143.326 60.6497 142.05 64.2818C137.891 73.3455 135.408 76.994 132.174 76.994C130.714 76.994 130.092 76.0805 130.092 74.0402C130.092 68.6304 135.511 59.4244 135.511 53.1722C135.511 49.4471 133.986 46.5644 128.983 46.5644C126.69 46.5644 124.537 47.8991 122.52 50.0105L123.077 48.6047C123.423 47.6912 122.731 46.6356 121.687 46.6356C121.06 46.6356 120.508 46.9856 120.297 47.6201C118.783 51.8266 116.744 57.6576 114.613 63.7457C114.559 63.8223 114.505 63.9043 114.461 63.9864C111.892 69.7463 108.696 76.9886 104.385 76.9886C102.925 76.9886 102.303 76.0751 102.303 74.0348C102.303 71.0153 103.553 67.7826 110.292 48.5993C110.708 47.4068 109.805 46.7012 108.902 46.7012C108.344 46.7012 107.787 47.0513 107.582 47.6858C104.526 55.6993 99.5936 68.5538 99.3826 74.0348C99.242 77.2675 101.048 79.9369 104.385 79.9369C106.397 79.9369 108.144 79.0836 109.707 77.6614C109.67 77.7653 109.632 77.8692 109.599 77.9732C109.323 78.8155 109.74 79.5923 110.502 79.8712C111.265 80.0846 112.103 79.7345 112.379 78.8867L117.149 65.2335C117.149 65.2335 117.166 65.2007 117.171 65.1843C117.182 65.1515 117.193 65.1187 117.198 65.0858L117.236 64.9765C119.459 59.0032 124.738 49.5182 128.978 49.5182C131.687 49.5182 132.591 51.1319 132.591 53.1722C132.591 59.2822 127.171 67.4379 127.171 74.0402C127.171 77.4863 128.837 79.9424 132.174 79.9424C135.165 79.9424 137.572 78.274 140.141 74.3575C140.649 78.0169 142.883 79.9424 146.696 79.9424H146.766C149.892 79.9424 153.089 77.8364 155.101 74.9537C155.517 78.0443 157.048 79.9424 160.103 79.9424C163.419 79.9424 166.134 77.7708 169.049 72.7384C170.385 76.9229 174.382 79.9424 179.066 79.9424C186.08 79.9424 191.64 75.0959 191.781 67.509C191.711 62.7283 189.834 60.2723 186.221 53.5223" fill="white"/>
</g>
</svg>
