<svg width="43" height="43" viewBox="0 0 43 43" fill="none" xmlns="http://www.w3.org/2000/svg">
<path d="M8.03377 34.1224C7.45002 34.3559 6.89546 34.3045 6.37009 33.9683C5.84472 33.6332 5.58203 33.1446 5.58203 32.5025V25.9791C5.58203 25.5705 5.69878 25.2057 5.93228 24.8846C6.16578 24.5635 6.48684 24.3592 6.89546 24.2717L19.592 21.1194L6.89546 17.9672C6.48684 17.8796 6.16578 17.6753 5.93228 17.3542C5.69878 17.0332 5.58203 16.6683 5.58203 16.2597V9.73634C5.58203 9.09421 5.84472 8.60503 6.37009 8.26879C6.89546 7.93372 7.45002 7.88294 8.03377 8.11643L35.0029 19.4995C35.7326 19.8206 36.0975 20.3605 36.0975 21.1194C36.0975 21.8783 35.7326 22.4183 35.0029 22.7393L8.03377 34.1224Z" fill="black"/>
</svg>
